<svg width="24.000000" height="24.000000" viewBox="0 0 24 24" fill="none" xmlns="http://www.w3.org/2000/svg" xmlns:xlink="http://www.w3.org/1999/xlink">
	<desc>
			Created with Pixso.
	</desc>
	<defs/>
	<rect id="Social Icons / White / Dribbble" rx="0.000000" width="23.000000" height="23.000000" transform="translate(0.500000 0.500000)" fill="#FFFFFF" fill-opacity="0"/>
	<path id="Path" d="M18.79 12.39C18.79 12.82 18.75 13.25 18.66 13.67C18.58 14.08 18.45 14.49 18.29 14.87C18.13 15.25 17.93 15.62 17.7 15.96C17.47 16.3 17.21 16.62 16.92 16.9C16.63 17.19 16.31 17.46 15.97 17.68C15.63 17.92 15.27 18.11 14.89 18.27C14.5 18.44 14.09 18.56 13.68 18.65C13.26 18.73 12.83 18.78 12.39 18.78C11.96 18.78 11.53 18.73 11.11 18.65C10.69 18.56 10.29 18.44 9.9 18.27C9.52 18.11 9.16 17.92 8.82 17.68C8.48 17.46 8.16 17.19 7.87 16.9C7.58 16.62 7.32 16.3 7.09 15.96C6.86 15.62 6.66 15.25 6.5 14.87C6.33 14.49 6.21 14.08 6.12 13.67C6.04 13.25 6 12.82 6 12.39C6 11.95 6.04 11.52 6.12 11.1C6.21 10.69 6.33 10.28 6.5 9.9C6.66 9.52 6.86 9.15 7.09 8.81C7.32 8.47 7.58 8.16 7.87 7.87C8.16 7.58 8.48 7.32 8.82 7.09C9.16 6.86 9.52 6.66 9.9 6.5C10.29 6.33 10.69 6.21 11.11 6.12C11.53 6.04 11.96 6 12.39 6C12.83 6 13.26 6.04 13.68 6.12C14.09 6.21 14.5 6.33 14.89 6.5C15.27 6.66 15.63 6.86 15.97 7.09C16.31 7.32 16.63 7.58 16.92 7.87C17.21 8.16 17.47 8.47 17.7 8.81C17.93 9.15 18.13 9.52 18.29 9.9C18.45 10.28 18.58 10.69 18.66 11.1C18.75 11.52 18.79 11.95 18.79 12.39ZM10.06 7.45C8.54 8.17 7.4 9.57 7.05 11.26C7.19 11.26 9.47 11.29 12.09 10.59C11.15 8.92 10.14 7.55 10.06 7.45ZM12.55 11.43C9.73 12.28 7.03 12.22 6.93 12.21C6.93 12.27 6.93 12.33 6.93 12.39C6.93 13.79 7.46 15.07 8.33 16.03C8.33 16.03 9.82 13.38 12.77 12.43C12.84 12.4 12.92 12.38 12.99 12.36C12.85 12.05 12.7 11.74 12.55 11.43ZM16 8.29C15.04 7.44 13.78 6.93 12.39 6.93C11.95 6.93 11.52 6.98 11.11 7.08C11.19 7.19 12.22 8.55 13.15 10.27C15.21 9.49 15.99 8.31 16 8.29ZM13.36 13.27C13.35 13.27 13.34 13.27 13.32 13.28C10.1 14.4 9.05 16.66 9.04 16.69C9.96 17.41 11.13 17.84 12.39 17.84C13.15 17.84 13.87 17.69 14.53 17.41C14.45 16.93 14.13 15.26 13.36 13.27ZM15.45 16.91C16.68 16.09 17.55 14.77 17.79 13.25C17.68 13.22 16.15 12.73 14.39 13.01C15.1 14.98 15.39 16.58 15.45 16.91ZM13.57 11.08C13.7 11.34 13.82 11.6 13.93 11.87C13.97 11.97 14.01 12.06 14.05 12.15C15.93 11.92 17.78 12.31 17.86 12.33C17.85 11.04 17.38 9.85 16.62 8.92C16.61 8.93 15.73 10.2 13.57 11.08Z" fill="#FFFFFF" fill-opacity="1.000000" fill-rule="evenodd"/>
</svg>
