<svg width="50" height="50" viewBox="0 0 50 50" fill="none" xmlns="http://www.w3.org/2000/svg">
<path d="M34.0832 29.1666C34.2498 27.7916 34.3748 26.4166 34.3748 25C34.3748 23.5833 34.2498 22.2083 34.0832 20.8333H41.1248C41.4582 22.1666 41.6665 23.5625 41.6665 25C41.6665 26.4375 41.4582 27.8333 41.1248 29.1666H34.0832ZM30.3957 40.75C31.6457 38.4375 32.604 35.9375 33.2707 33.3333H39.4165C37.3981 36.8089 34.1959 39.4416 30.3957 40.75ZM29.8748 29.1666H20.1248C19.9165 27.7916 19.7915 26.4166 19.7915 25C19.7915 23.5833 19.9165 22.1875 20.1248 20.8333H29.8748C30.0623 22.1875 30.2082 23.5833 30.2082 25C30.2082 26.4166 30.0623 27.7916 29.8748 29.1666ZM24.9998 41.5833C23.2707 39.0833 21.8748 36.3125 21.0207 33.3333H28.979C28.1248 36.3125 26.729 39.0833 24.9998 41.5833ZM16.6665 16.6666H10.5832C12.5808 13.1817 15.7807 10.5447 19.5832 9.24996C18.3332 11.5625 17.3957 14.0625 16.6665 16.6666ZM10.5832 33.3333H16.6665C17.3957 35.9375 18.3332 38.4375 19.5832 40.75C15.7886 39.4409 12.5933 36.8077 10.5832 33.3333ZM8.87484 29.1666C8.5415 27.8333 8.33317 26.4375 8.33317 25C8.33317 23.5625 8.5415 22.1666 8.87484 20.8333H15.9165C15.7498 22.2083 15.6248 23.5833 15.6248 25C15.6248 26.4166 15.7498 27.7916 15.9165 29.1666H8.87484ZM24.9998 8.39579C26.729 10.8958 28.1248 13.6875 28.979 16.6666H21.0207C21.8748 13.6875 23.2707 10.8958 24.9998 8.39579ZM39.4165 16.6666H33.2707C32.6186 14.0863 31.6531 11.5956 30.3957 9.24996C34.229 10.5625 37.4165 13.2083 39.4165 16.6666ZM24.9998 4.16663C13.479 4.16663 4.1665 13.5416 4.1665 25C4.1665 30.5253 6.36144 35.8243 10.2684 39.7314C12.203 41.6659 14.4996 43.2005 17.0273 44.2475C19.5549 45.2944 22.264 45.8333 24.9998 45.8333C30.5252 45.8333 35.8242 43.6384 39.7312 39.7314C43.6382 35.8243 45.8332 30.5253 45.8332 25C45.8332 22.2641 45.2943 19.555 44.2473 17.0274C43.2004 14.4998 41.6658 12.2031 39.7312 10.2686C37.7967 8.33401 35.5 6.79944 32.9724 5.75247C30.4448 4.7055 27.7357 4.16663 24.9998 4.16663Z" fill="#377DFF"/>
</svg>
