<svg width="50" height="50" viewBox="0 0 50 50" fill="none" xmlns="http://www.w3.org/2000/svg">
<path d="M33.5938 15.2344V12.8906C33.5938 12.6758 33.418 12.5 33.2031 12.5H14.4531C14.2383 12.5 14.0625 12.6758 14.0625 12.8906V15.2344C14.0625 15.4492 14.2383 15.625 14.4531 15.625H33.2031C33.418 15.625 33.5938 15.4492 33.5938 15.2344ZM14.4531 19.5312C14.2383 19.5312 14.0625 19.707 14.0625 19.9219V22.2656C14.0625 22.4805 14.2383 22.6562 14.4531 22.6562H23.4375C23.6523 22.6562 23.8281 22.4805 23.8281 22.2656V19.9219C23.8281 19.707 23.6523 19.5312 23.4375 19.5312H14.4531ZM32.8125 25.1953C26.9873 25.1953 22.2656 29.917 22.2656 35.7422C22.2656 41.5674 26.9873 46.2891 32.8125 46.2891C38.6377 46.2891 43.3594 41.5674 43.3594 35.7422C43.3594 29.917 38.6377 25.1953 32.8125 25.1953ZM38.0615 40.9912C36.6602 42.3926 34.7949 43.1641 32.8125 43.1641C30.8301 43.1641 28.9648 42.3926 27.5635 40.9912C26.1621 39.5898 25.3906 37.7246 25.3906 35.7422C25.3906 33.7598 26.1621 31.8945 27.5635 30.4932C28.9648 29.0918 30.8301 28.3203 32.8125 28.3203C34.7949 28.3203 36.6602 29.0918 38.0615 30.4932C39.4629 31.8945 40.2344 33.7598 40.2344 35.7422C40.2344 37.7246 39.4629 39.5898 38.0615 40.9912ZM37.1582 32.0312H34.9951C34.8682 32.0312 34.751 32.0898 34.6777 32.1924L31.5771 36.4795L30.4492 34.9219C30.4131 34.8716 30.3654 34.8307 30.3102 34.8026C30.2549 34.7746 30.1938 34.7602 30.1318 34.7607H27.9785C27.6611 34.7607 27.4756 35.1221 27.6611 35.3809L31.2646 40.3662C31.4209 40.5811 31.7383 40.5811 31.8945 40.3662L37.4707 32.6514C37.6611 32.3926 37.4756 32.0312 37.1582 32.0312ZM21.4844 41.6016H10.1562V7.22656H37.5V24.0234C37.5 24.2383 37.6758 24.4141 37.8906 24.4141H40.625C40.8398 24.4141 41.0156 24.2383 41.0156 24.0234V5.27344C41.0156 4.40918 40.3174 3.71094 39.4531 3.71094H8.20312C7.33887 3.71094 6.64062 4.40918 6.64062 5.27344V43.5547C6.64062 44.4189 7.33887 45.1172 8.20312 45.1172H21.4844C21.6992 45.1172 21.875 44.9414 21.875 44.7266V41.9922C21.875 41.7773 21.6992 41.6016 21.4844 41.6016Z" fill="#377DFF"/>
</svg>
