<svg width="50" height="50" viewBox="0 0 50 50" fill="none" xmlns="http://www.w3.org/2000/svg">
<path d="M44.341 17.2412L31.9435 15.4395L26.4015 4.20412C26.2502 3.8965 26.0011 3.64748 25.6935 3.49611C24.922 3.11525 23.9845 3.43264 23.5988 4.20412L18.0568 15.4395L5.65935 17.2412C5.31755 17.2901 5.00505 17.4512 4.76579 17.6953C4.47654 17.9926 4.31715 18.3926 4.32265 18.8074C4.32814 19.2221 4.49807 19.6177 4.79509 19.9072L13.7648 28.6524L11.6457 41.001C11.596 41.2883 11.6278 41.5837 11.7374 41.8538C11.8471 42.1239 12.0303 42.3579 12.2661 42.5292C12.502 42.7005 12.7812 42.8023 13.0719 42.823C13.3627 42.8438 13.6535 42.7826 13.9113 42.6465L25.0002 36.8164L36.089 42.6465C36.3918 42.8076 36.7433 42.8613 37.0802 42.8028C37.9299 42.6563 38.5011 41.8506 38.3547 41.001L36.2355 28.6524L45.2052 19.9072C45.4494 19.668 45.6105 19.3555 45.6593 19.0137C45.7912 18.1592 45.1955 17.3682 44.341 17.2412ZM32.4611 27.4219L34.2238 37.6905L25.0002 32.8467L15.7765 37.6953L17.5392 27.4268L10.0783 20.1514L20.3908 18.6524L25.0002 9.31154L29.6095 18.6524L39.922 20.1514L32.4611 27.4219Z" fill="#377DFF"/>
</svg>
