<svg width="24.000000" height="24.000000" viewBox="0 0 24 24" fill="none" xmlns="http://www.w3.org/2000/svg" xmlns:xlink="http://www.w3.org/1999/xlink">
	<desc>
			Created with Pixso.
	</desc>
	<defs/>
	<rect id="Social Icons / White / Instagram" rx="0.000000" width="23.000000" height="23.000000" transform="translate(0.500000 0.500000)" fill="#FFFFFF" fill-opacity="0"/>
	<path id="Path" d="M12 5.6C10.26 5.6 10.04 5.6 9.36 5.63C8.68 5.66 8.21 5.77 7.8 5.93C7.38 6.09 7.03 6.31 6.67 6.67C6.31 7.02 6.09 7.38 5.93 7.8C5.77 8.21 5.66 8.67 5.63 9.36C5.6 10.04 5.59 10.26 5.59 12C5.59 13.73 5.6 13.95 5.63 14.63C5.66 15.31 5.77 15.78 5.93 16.19C6.09 16.61 6.31 16.96 6.67 17.32C7.02 17.68 7.38 17.9 7.8 18.06C8.21 18.22 8.67 18.33 9.36 18.36C10.04 18.39 10.26 18.4 11.99 18.4C13.73 18.4 13.95 18.39 14.63 18.36C15.31 18.33 15.78 18.22 16.19 18.06C16.61 17.9 16.96 17.68 17.32 17.32C17.68 16.96 17.9 16.61 18.06 16.19C18.22 15.78 18.32 15.31 18.36 14.63C18.39 13.95 18.4 13.73 18.4 12C18.4 10.26 18.39 10.04 18.36 9.36C18.32 8.67 18.22 8.21 18.06 7.8C17.9 7.38 17.68 7.02 17.32 6.67C16.96 6.31 16.61 6.09 16.19 5.93C15.78 5.77 15.31 5.66 14.63 5.63C13.95 5.6 13.73 5.6 11.99 5.6L12 5.6ZM11.42 6.75C11.59 6.75 11.78 6.75 12 6.75C13.7 6.75 13.91 6.75 14.58 6.79C15.21 6.81 15.54 6.92 15.77 7.01C16.07 7.12 16.28 7.26 16.51 7.48C16.73 7.71 16.87 7.92 16.98 8.22C17.07 8.45 17.18 8.78 17.2 9.41C17.24 10.08 17.24 10.29 17.24 11.99C17.24 13.7 17.24 13.9 17.2 14.58C17.18 15.2 17.07 15.54 16.98 15.77C16.87 16.07 16.73 16.28 16.51 16.5C16.28 16.73 16.07 16.86 15.77 16.98C15.54 17.07 15.21 17.17 14.58 17.2C13.91 17.23 13.7 17.24 12 17.24C10.29 17.24 10.08 17.23 9.41 17.2C8.79 17.17 8.45 17.07 8.22 16.98C7.92 16.86 7.71 16.73 7.48 16.5C7.26 16.28 7.12 16.07 7.01 15.77C6.92 15.54 6.81 15.2 6.79 14.58C6.75 13.9 6.75 13.7 6.75 11.99C6.75 10.28 6.75 10.08 6.79 9.41C6.81 8.78 6.92 8.44 7.01 8.22C7.12 7.92 7.26 7.71 7.48 7.48C7.71 7.26 7.92 7.12 8.22 7C8.45 6.92 8.79 6.81 9.41 6.78C10 6.76 10.23 6.75 11.42 6.75L11.42 6.75ZM15.41 7.81C14.99 7.81 14.64 8.15 14.64 8.58C14.64 9 14.99 9.35 15.41 9.35C15.84 9.35 16.18 9 16.18 8.58C16.18 8.15 15.84 7.81 15.41 7.81ZM12 8.71C10.18 8.71 8.71 10.18 8.71 12C8.71 13.81 10.18 15.28 12 15.28C13.81 15.28 15.28 13.81 15.28 12C15.28 10.18 13.81 8.71 12 8.71ZM12 9.86C13.17 9.86 14.13 10.82 14.13 12C14.13 13.17 13.17 14.13 12 14.13C10.82 14.13 9.86 13.17 9.86 12C9.86 10.82 10.82 9.86 12 9.86Z" fill="#FFFFFF" fill-opacity="1.000000" fill-rule="evenodd"/>
</svg>
