<svg width="270.000000" height="55.000000" viewBox="0 0 270 55" fill="none" xmlns="http://www.w3.org/2000/svg" xmlns:xlink="http://www.w3.org/1999/xlink">
	<desc>
			Created with Pixso.
	</desc>
	<defs>
		<clipPath id="clip1_274">
			<rect id="Frame" rx="0.000000" width="49.294117" height="29.000000" transform="translate(0.500000 13.500000)" fill="white" fill-opacity="0"/>
		</clipPath>
		<linearGradient x1="25.147425" y1="13.000000" x2="25.147425" y2="43.006378" id="paint_linear_1_275_0" gradientUnits="userSpaceOnUse">
			<stop stop-color="#377DFF"/>
			<stop offset="1.000000" stop-color="#8FBCFF"/>
		</linearGradient>
	</defs>
	<path id="WebTech" d="M118.23 25.13Q118.06 25.36 117.91 25.61L117.91 16.8L115.18 16.8L115.18 39L117.91 39L117.91 35.96Q118 36.12 118.1 36.27Q118.9 37.51 120.33 38.34Q120.36 38.35 120.39 38.37Q121.97 39.27 124.07 39.27Q125.55 39.27 126.84 38.77Q127.46 38.54 128.04 38.19Q128.62 37.84 129.12 37.39Q130.16 36.47 130.84 35.16Q130.86 35.13 130.87 35.1Q131.87 33.16 131.87 30.72Q131.87 28.19 130.84 26.29Q130.17 25.03 129.16 24.14Q128.65 23.69 128.05 23.34Q127.65 23.1 127.23 22.91Q125.78 22.29 124.07 22.29Q122.25 22.29 120.78 23.01Q120.57 23.11 120.38 23.22Q119.03 23.98 118.23 25.13ZM199.58 22.84Q198.26 22.25 196.67 22.25Q194.9 22.25 193.47 22.95Q192.51 23.41 191.83 24.14Q191.5 24.49 191.23 24.9L191.23 16.8L188.5 16.8L188.5 39L191.23 39L191.23 29.91Q191.23 27.33 192.51 25.98Q192.85 25.61 193.26 25.35Q194.37 24.62 195.94 24.62Q197.57 24.62 198.68 25.39Q199.02 25.62 199.31 25.93L199.31 25.93Q200.54 27.24 200.54 29.69L200.54 39L203.24 39L203.24 29.31Q203.24 27.03 202.38 25.44Q201.8 24.36 200.93 23.65Q200.51 23.31 200.02 23.05Q199.81 22.94 199.58 22.84ZM87.52 39L93.58 18.08L90.64 18.08L86.05 35.76L81.25 18.08L78.19 18.08L73.15 35.82L68.6 18.08L65.68 18.08L71.54 39.02L74.57 39L79.61 22.16L84.46 39L87.52 39ZM148.34 20.3L148.34 18.08L134.17 18.08L134.17 20.3L139.91 20.3L139.91 39L142.63 39L142.63 20.3L148.34 20.3ZM111.49 31.8Q111.58 30.92 111.58 30.15Q111.58 28.09 110.77 26.42Q110.69 26.27 110.61 26.11Q110.17 25.32 109.58 24.67Q108.83 23.87 107.83 23.31Q107.76 23.27 107.7 23.23Q105.95 22.29 103.69 22.29Q101.36 22.29 99.55 23.26Q99.5 23.29 99.45 23.32Q98.71 23.73 98.1 24.29Q97.2 25.12 96.58 26.27Q95.56 28.19 95.56 30.75Q95.56 33.3 96.61 35.23Q97.26 36.43 98.22 37.29Q98.81 37.82 99.51 38.22Q99.78 38.37 100.05 38.5Q101.69 39.27 103.69 39.27Q106.36 39.27 108.23 38.05Q108.43 37.92 108.62 37.78Q109.64 37.01 110.31 36Q110.94 35.07 111.25 33.93L108.32 33.93Q108.06 34.65 107.62 35.22Q107.21 35.74 106.65 36.13Q105.47 36.95 103.69 36.95Q102.37 36.95 101.29 36.44Q100.6 36.12 100.02 35.59Q99.72 35.32 99.47 35.01Q98.48 33.75 98.35 31.8L111.49 31.8ZM166.6 31.8Q166.69 30.92 166.69 30.15Q166.69 28.09 165.88 26.42Q165.8 26.27 165.72 26.11Q165.28 25.32 164.69 24.67Q163.94 23.87 162.94 23.31Q162.87 23.27 162.81 23.23Q161.06 22.29 158.8 22.29Q156.47 22.29 154.66 23.26Q154.61 23.29 154.56 23.32Q153.82 23.73 153.21 24.29Q152.31 25.12 151.69 26.27Q150.67 28.19 150.67 30.75Q150.67 33.3 151.72 35.23Q152.37 36.43 153.33 37.29Q153.92 37.82 154.62 38.22Q154.89 38.37 155.16 38.5Q156.8 39.27 158.8 39.27Q161.47 39.27 163.34 38.05Q163.54 37.92 163.73 37.78Q164.75 37.01 165.42 36Q166.05 35.07 166.36 33.93L163.43 33.93Q163.17 34.65 162.73 35.22Q162.32 35.74 161.76 36.13Q160.58 36.95 158.8 36.95Q157.48 36.95 156.4 36.44Q155.71 36.12 155.13 35.59Q154.83 35.32 154.59 35.01Q153.59 33.75 153.47 31.8L166.6 31.8ZM170.29 26.29Q169.27 28.19 169.27 30.75Q169.27 33.33 170.29 35.25Q170.94 36.45 171.89 37.31Q172.45 37.83 173.13 38.22Q173.31 38.32 173.5 38.42Q175.18 39.27 177.29 39.27Q179.94 39.27 181.81 38.05Q182.02 37.91 182.23 37.75Q183.03 37.14 183.61 36.37Q184.48 35.22 184.88 33.71L181.94 33.71Q181.61 34.85 180.88 35.6Q180.61 35.89 180.28 36.12Q179.09 36.95 177.29 36.95Q175.85 36.95 174.74 36.34Q174.06 35.96 173.5 35.33Q172.07 33.71 172.07 30.75Q172.07 27.8 173.5 26.2Q174.04 25.6 174.71 25.22Q175.83 24.6 177.29 24.6Q179.02 24.6 180.2 25.4Q180.25 25.43 180.3 25.47Q180.78 25.81 181.14 26.26Q181.68 26.93 181.94 27.83L184.88 27.83Q184.44 26.04 183.37 24.79Q182.89 24.22 182.28 23.76Q182.23 23.72 182.18 23.69Q180.24 22.29 177.29 22.29Q175.18 22.29 173.5 23.13Q173.31 23.23 173.13 23.34Q172.43 23.74 171.85 24.27Q170.92 25.12 170.29 26.29ZM108.07 26.9Q108.76 28.02 108.76 29.58L98.38 29.58Q98.56 27.63 99.59 26.4Q99.8 26.14 100.05 25.91Q100.63 25.39 101.3 25.07Q102.33 24.6 103.58 24.6Q104.84 24.6 105.92 25.05Q106.06 25.11 106.2 25.18Q106.8 25.48 107.27 25.91Q107.73 26.34 108.07 26.9ZM163.18 26.9Q163.87 28.02 163.87 29.58L153.49 29.58Q153.67 27.63 154.7 26.4Q154.91 26.14 155.16 25.91Q155.74 25.39 156.41 25.07Q157.44 24.6 158.69 24.6Q159.95 24.6 161.03 25.05Q161.17 25.11 161.31 25.18Q161.91 25.48 162.38 25.91Q162.84 26.34 163.18 26.9ZM128.32 27.48Q129.08 28.86 129.08 30.72Q129.08 32.61 128.32 34Q127.78 35.02 126.95 35.68Q126.64 35.93 126.3 36.13Q125.86 36.39 125.38 36.55Q124.49 36.86 123.5 36.86Q122.63 36.86 121.83 36.62Q121.26 36.44 120.72 36.13Q120.42 35.96 120.14 35.74Q119.26 35.06 118.68 34Q117.91 32.61 117.91 30.75Q117.91 28.92 118.68 27.53Q119.27 26.44 120.18 25.75Q120.44 25.56 120.72 25.39Q121.27 25.08 121.86 24.89Q122.64 24.65 123.5 24.65Q124.51 24.65 125.41 24.97Q125.87 25.14 126.3 25.38Q126.64 25.57 126.95 25.81Q127.78 26.47 128.32 27.48Z" fill="#377DFF" fill-opacity="1.000000" fill-rule="evenodd"/>
	<rect id="Frame" rx="0.000000" width="49.294117" height="29.000000" transform="translate(0.500000 13.500000)" fill="#FFFFFF" fill-opacity="0"/>
	<g clip-path="url(#clip1_274)">
		<path id="Vector" d="M21.32 40.83L16.82 40.83L10.59 30.09C10.29 29.57 9.62 29.39 9.1 29.69C8.58 29.99 8.4 30.66 8.7 31.17L14.3 40.83L9.79 40.83L2.35 28L9.79 15.16L23.28 15.16L28.19 23.64C27.39 24.39 26.89 25.45 26.89 26.63C26.89 28.9 28.74 30.75 31.02 30.75C33.31 30.75 35.16 28.9 35.16 26.63C35.16 24.36 33.31 22.51 31.02 22.51C30.71 22.51 30.41 22.55 30.11 22.62L24.85 13.54C24.66 13.2 24.3 13 23.91 13L9.16 13C8.77 13 8.41 13.2 8.22 13.54L0.14 27.46C-0.05 27.79 -0.05 28.2 0.14 28.54L8.22 42.46C8.41 42.8 8.77 43 9.16 43L21.32 43C21.92 43 22.41 42.52 22.41 41.92C22.41 41.31 21.92 40.83 21.32 40.83ZM31.03 24.68C32.11 24.68 32.99 25.56 32.99 26.63C32.99 27.71 32.11 28.58 31.03 28.58C29.95 28.58 29.07 27.71 29.07 26.63C29.07 25.56 29.95 24.68 31.03 24.68ZM50.14 27.46L42.07 13.54C41.87 13.2 41.51 13 41.12 13L28.96 13C28.36 13 27.87 13.48 27.87 14.08C27.87 14.68 28.36 15.16 28.96 15.16L33.46 15.16L39.69 25.9C39.89 26.25 40.26 26.44 40.63 26.44C40.82 26.44 41.01 26.4 41.18 26.3C41.7 26 41.88 25.33 41.58 24.82L35.98 15.16L40.49 15.16L47.94 27.99L40.49 40.83L27 40.83L22.09 32.35C22.89 31.6 23.39 30.54 23.39 29.36C23.39 27.09 21.54 25.24 19.25 25.24C16.97 25.24 15.12 27.09 15.12 29.36C15.12 31.63 16.97 33.48 19.25 33.48C19.57 33.48 19.87 33.44 20.16 33.37L25.43 42.45C25.62 42.79 25.99 43 26.37 43L41.12 43C41.51 43 41.87 42.79 42.06 42.45L50.14 28.53C50.33 28.2 50.33 27.79 50.14 27.46ZM19.25 31.31C18.17 31.31 17.29 30.43 17.29 29.36C17.29 28.28 18.17 27.41 19.25 27.41C20.34 27.41 21.22 28.28 21.22 29.36C21.22 30.43 20.34 31.31 19.25 31.31Z" fill="url(#paint_linear_1_275_0)" fill-opacity="1.000000" fill-rule="nonzero"/>
	</g>
</svg>
