<svg width="24.000000" height="24.000000" viewBox="0 0 24 24" fill="none" xmlns="http://www.w3.org/2000/svg" xmlns:xlink="http://www.w3.org/1999/xlink">
	<desc>
			Created with Pixso.
	</desc>
	<defs/>
	<rect id="Social Icons / White / Youtube" rx="0.000000" width="23.000000" height="23.000000" transform="translate(0.500000 0.500000)" fill="#FFFFFF" fill-opacity="0"/>
	<path id="Path" d="M17 7.87C17.55 8.02 17.98 8.47 18.13 9.03C18.4 10.06 18.4 12.2 18.4 12.2C18.4 12.2 18.4 14.33 18.13 15.36C17.98 15.92 17.55 16.37 17 16.52C16 16.79 12 16.79 12 16.79C12 16.79 7.99 16.79 6.99 16.52C6.44 16.37 6.01 15.92 5.86 15.36C5.59 14.33 5.59 12.2 5.59 12.2C5.59 12.2 5.59 10.06 5.86 9.03C6.01 8.47 6.44 8.02 6.99 7.87C7.99 7.6 12 7.6 12 7.6C12 7.6 16 7.6 17 7.87ZM10.8 10.4L10.8 14.4L14 12.4L10.8 10.4Z" fill="#FFFFFF" fill-opacity="1.000000" fill-rule="evenodd"/>
</svg>
